<?xml version="1.0" encoding="UTF-8"?>
<svg xmlns="http://www.w3.org/2000/svg" viewBox="0 0 53.24 53.24">
    <path fill="#ed1a3b" d="m12.29,32.67c4.57,0,8.29,3.72,8.29,8.29s-3.72,8.29-8.29,8.29-8.29-3.72-8.29-8.29,3.72-8.29,8.29-8.29m0-4c-6.79,0-12.29,5.5-12.29,12.29h0c0,6.79,5.5,12.29,12.29,12.29s12.29-5.5,12.29-12.29h0c0-6.79-5.5-12.29-12.29-12.29h0Z"/>
    <path fill="#ed1a3b" d="m32.67,4.39c8.14,1.61,14.57,8.04,16.18,16.18h-16.18V4.39M28.67,0v24.57h24.57C53.24,11,42.24,0,28.67,0h0Z"/>
    <path fill="#ed1a3b" d="m20.57,4v16.57H4V4h16.57M24.57,0H0v24.57h24.57V0h0Z"/>
</svg>
